<svg width="40" height="33" viewBox="0 0 40 33" fill="none" xmlns="http://www.w3.org/2000/svg">
<path d="M34.321 5.78909H27.5391V3.12329C27.5818 1.90683 26.5447 0.888794 25.2226 0.849508C25.1552 0.84752 25.0879 0.848088 25.0206 0.851306H14.9794C13.6584 0.787975 12.5318 1.72195 12.4629 2.93737C12.4594 2.99928 12.4586 3.06128 12.4609 3.12329V5.77394H5.67901C3.06173 5.77394 0 7.1447 0 10.9995V27.4714C0 31.3262 3.06173 32.697 5.67901 32.697H34.321C36.9383 32.697 40 31.3262 40 27.4714V11.0147C40 7.15985 36.9465 5.78909 34.321 5.78909ZM14.107 3.12329C14.107 2.90367 14.107 2.31295 14.9877 2.31295H25.0206C25.9012 2.31295 25.9012 2.89609 25.9012 3.12329V5.77394H14.107V3.12329ZM38.3539 27.4714C38.3539 30.8188 35.5391 31.1823 34.321 31.1823H5.67901C4.46914 31.1823 1.64609 30.8188 1.64609 27.4714V11.0147C1.64609 7.66726 4.46091 7.30374 5.67901 7.30374H34.321C35.5309 7.30374 38.3539 7.66726 38.3539 11.0147V27.4714Z" fill="#3060A0"/>
<path d="M1 19H39" stroke="#3060A0" stroke-width="1.5"/>
<rect x="16" y="19" width="7" height="3" fill="#3060A0"/>
</svg>
