<svg width="31" height="25" viewBox="0 0 31 25" fill="none" xmlns="http://www.w3.org/2000/svg">
<path d="M25.7811 4.07699H20.6867V2.00412C20.7188 1.05823 19.9397 0.266621 18.9467 0.236072C18.896 0.234527 18.8454 0.234968 18.7949 0.237471H11.2522C10.2599 0.188226 9.41359 0.914465 9.36181 1.85955C9.35919 1.90769 9.35864 1.95591 9.36034 2.00412V4.06521H4.26594C2.2999 4.06521 0 5.13109 0 8.1285V20.9367C0 23.9341 2.2999 25 4.26594 25H25.7811C27.7472 25 30.0471 23.9341 30.0471 20.9367V8.14028C30.0471 5.14287 27.7534 4.07699 25.7811 4.07699ZM10.5968 2.00412C10.5968 1.83334 10.5968 1.37401 11.2584 1.37401H18.7949C19.4564 1.37401 19.4564 1.82746 19.4564 2.00412V4.06521H10.5968V2.00412ZM28.8106 20.9367C28.8106 23.5396 26.6961 23.8222 25.7811 23.8222H4.26594C3.35711 23.8222 1.23651 23.5396 1.23651 20.9367V8.14028C1.23651 5.53742 3.35093 5.25475 4.26594 5.25475H25.7811C26.69 5.25475 28.8106 5.53742 28.8106 8.14028V20.9367Z" fill="#3060A0"/>
<path d="M0.751221 14.0236H29.2959" stroke="#3060A0" stroke-width="1.5"/>
<rect x="12.0188" y="14.0236" width="5.25824" height="2.25353" fill="#3060A0"/>
</svg>
