<svg width="125" height="125" viewBox="0 0 125 125" fill="none" xmlns="http://www.w3.org/2000/svg">
<rect x="2.5" y="2.5" width="120" height="120" rx="17.5" stroke="white" stroke-width="5"/>
<path d="M47 106.482C50.866 106.482 54 103.395 54 99.5859C54 95.7772 50.866 92.6896 47 92.6896C43.134 92.6896 40 95.7772 40 99.5859C40 103.395 43.134 106.482 47 106.482Z" stroke="white" stroke-width="5" stroke-miterlimit="10"/>
<path d="M52.7959 47.9332C52.7959 47.9332 45.1003 47.0425 45.1003 55.7121C45.1003 64.3224 53.3133 72.1013 63.8543 75.5454" stroke="white" stroke-width="5" stroke-miterlimit="10"/>
<path d="M38.1186 99.4437C38.1186 99.4437 26.7535 101.153 26.7535 91.3115V80.8812L26.82 65.8544C26.82 65.324 26.3547 64.8526 25.6901 64.8526H15.0363C13.2261 64.8526 12.3471 62.6394 13.6642 61.3975L61.1652 16.6073C61.9246 15.8912 63.1071 15.8796 63.8805 16.5807L113.159 61.253C114.515 62.4817 113.645 64.7347 111.816 64.7347H100.328C99.7297 64.7347 99.198 65.2062 99.198 65.7365L99.1316 89.5437C99.1316 101.035 84.975 109.638 70.8849 103.097C66.2325 100.917 62.5105 95.3776 62.5105 90.8401V75.0472" stroke="white" stroke-width="5" stroke-miterlimit="10"/>
<path d="M74.9765 47.9332C74.9765 47.9332 82.6721 47.0425 82.6721 55.7121C82.6721 64.3224 74.4592 72.1013 63.9182 75.5454" stroke="white" stroke-width="5" stroke-miterlimit="10"/>
<path d="M51.7535 51.0094C53.2929 51.0094 54.5408 49.846 54.5408 48.411C54.5408 46.9759 53.2929 45.8126 51.7535 45.8126C50.2142 45.8126 48.9663 46.9759 48.9663 48.411C48.9663 49.846 50.2142 51.0094 51.7535 51.0094Z" stroke="white" stroke-width="5" stroke-miterlimit="10"/>
<path d="M76.839 51.0094C78.3783 51.0094 79.6262 49.846 79.6262 48.411C79.6262 46.9759 78.3783 45.8126 76.839 45.8126C75.2996 45.8126 74.0518 46.9759 74.0518 48.411C74.0518 49.846 75.2996 51.0094 76.839 51.0094Z" stroke="white" stroke-width="5" stroke-miterlimit="10"/>
</svg>
