<svg width="53" height="48" viewBox="0 0 53 48" fill="none" xmlns="http://www.w3.org/2000/svg">
<path d="M17.8163 46.1675C19.7249 46.1675 21.2722 44.7681 21.2722 43.0419C21.2722 41.3156 19.7249 39.9163 17.8163 39.9163C15.9076 39.9163 14.3604 41.3156 14.3604 43.0419C14.3604 44.7681 15.9076 46.1675 17.8163 46.1675Z" stroke="white" stroke-width="2" stroke-miterlimit="10"/>
<path d="M20.824 16.9356C20.824 16.9356 17.0161 16.4891 17.0161 20.8352C17.0161 25.1515 21.08 29.0511 26.2959 30.7776" stroke="white" stroke-width="2" stroke-miterlimit="10"/>
<path d="M13.5617 42.7574C13.5617 42.7574 7.93802 43.6141 7.93802 38.6809V33.4522L7.97091 25.9194C7.97091 25.6535 7.7407 25.4172 7.41183 25.4172L3.20229 25.3581C1.22907 25.3581 0.242463 23.2607 1.68949 22.0496L25.0064 2.2575C25.5983 1.75531 26.5521 1.75531 27.144 2.2575L49.5357 21.9751C51.5304 23.8019 52.1952 25.4172 49.5357 25.3581H44.3439C44.0479 25.3581 43.7848 25.5944 43.7848 25.8603L43.752 37.7947C43.752 43.555 36.747 47.8679 29.775 44.589C27.4729 43.496 25.6312 40.7191 25.6312 38.4445V30.5277" stroke="white" stroke-width="2" stroke-miterlimit="10"/>
<path d="M31.8 16.9356C31.8 16.9356 35.6079 16.4891 35.6079 20.8352C35.6079 25.1515 31.544 29.0511 26.3281 30.7776" stroke="white" stroke-width="2" stroke-miterlimit="10"/>
<path d="M20.3084 18.4775C21.0701 18.4775 21.6876 17.8943 21.6876 17.1749C21.6876 16.4555 21.0701 15.8723 20.3084 15.8723C19.5467 15.8723 18.9292 16.4555 18.9292 17.1749C18.9292 17.8943 19.5467 18.4775 20.3084 18.4775Z" stroke="white" stroke-width="1.5" stroke-miterlimit="10"/>
<path d="M32.721 18.4775C33.4827 18.4775 34.1001 17.8943 34.1001 17.1749C34.1001 16.4555 33.4827 15.8723 32.721 15.8723C31.9593 15.8723 31.3418 16.4555 31.3418 17.1749C31.3418 17.8943 31.9593 18.4775 32.721 18.4775Z" stroke="white" stroke-width="1.5" stroke-miterlimit="10"/>
</svg>
