<svg width="29" height="29" viewBox="0 0 29 29" fill="none" xmlns="http://www.w3.org/2000/svg">
<path d="M5.52055 17.2246C2.53717 19.7545 1.55748 23.357 1.19007 26.2276C1.04393 27.3694 1.97101 28.3401 3.12214 28.3401H25.5364C26.7073 28.3401 27.641 27.337 27.4739 26.1781C27.0582 23.2947 26.0747 19.7309 23.2491 17.2246M5.52055 17.2246C7.60356 15.4582 10.414 14.2147 14.1507 14.1082C18.1156 13.9953 21.0766 15.2974 23.2491 17.2246M5.52055 17.2246L7.16438 20.8496M7.16438 20.8496C6.23515 21.6964 4.87257 23.6922 5.68219 25.7409C5.9689 26.4664 6.82893 26.6942 7.57534 26.4674V26.4674M7.16438 20.8496C8.73111 20.6299 11.7398 20.9707 12.6645 23.7081C12.905 24.4201 12.404 25.1254 11.6849 25.3439V25.3439M23.2491 17.2246C22.956 18.1832 21.7945 20.6249 21.137 21.2241" stroke="#3060A0" stroke-width="1.2"/>
<path d="M21.7701 22.3478C21.7701 22.9995 21.1724 23.6204 20.3153 23.6204C19.4582 23.6204 18.8605 22.9995 18.8605 22.3478C18.8605 21.6962 19.4582 21.0752 20.3153 21.0752C21.1724 21.0752 21.7701 21.6962 21.7701 22.3478Z" stroke="#3060A0" stroke-width="1.2"/>
<path d="M20.948 8.86494C20.948 12.474 18.0785 15.3809 14.5617 15.3809C11.045 15.3809 8.17544 12.474 8.17544 8.86494C8.17544 5.25585 11.045 2.34902 14.5617 2.34902C18.0785 2.34902 20.948 5.25585 20.948 8.86494Z" fill="white" stroke="#3060A0" stroke-width="1.2"/>
<path d="M8.39734 4.25592V2C8.39734 1.44772 8.84505 1 9.39734 1H19.7261C20.2784 1 20.7261 1.44772 20.7261 2V4.09189C20.7261 4.77872 20.0465 5.26817 19.3739 5.12917C16.2043 4.47417 12.1459 4.84292 9.61233 5.26491C8.9839 5.36958 8.39734 4.893 8.39734 4.25592Z" fill="white" stroke="#3060A0" stroke-width="1.2"/>
</svg>
