<svg width="20" height="18" viewBox="0 0 20 18" fill="none" xmlns="http://www.w3.org/2000/svg">
<path d="M8.84427 0.849634C9.15305 -0.051474 10.4275 -0.0514759 10.7363 0.849632L12.2699 5.3251C12.4084 5.72937 12.7885 6.00093 13.2159 6.00093H18.0609C19.0424 6.00093 19.4365 7.26758 18.6282 7.82443L14.8016 10.4605C14.4324 10.7149 14.2776 11.184 14.4229 11.6082L15.9059 15.9357C16.2184 16.8477 15.1865 17.6303 14.3926 17.0834L10.3576 14.3037C10.016 14.0684 9.56456 14.0684 9.22295 14.3037L5.18798 17.0834C4.39405 17.6303 3.36214 16.8477 3.67467 15.9357L5.15759 11.6082C5.30295 11.184 5.14817 10.7149 4.7789 10.4605L0.952368 7.82443C0.144054 7.26758 0.538124 6.00093 1.51968 6.00093H6.36464C6.79199 6.00093 7.17211 5.72937 7.31064 5.3251L8.84427 0.849634Z" fill="#2D9CDB"/>
</svg>
