<svg width="20" height="18" viewBox="0 0 20 18" fill="none" xmlns="http://www.w3.org/2000/svg">
<path d="M8.97807 0.849631C9.28685 -0.0514764 10.5613 -0.0514783 10.8701 0.84963L12.4037 5.3251C12.5422 5.72937 12.9223 6.00093 13.3497 6.00093H18.1947C19.1762 6.00093 19.5703 7.26758 18.762 7.82443L14.9354 10.4605C14.5662 10.7149 14.4114 11.184 14.5568 11.6082L16.0397 15.9357C16.3522 16.8477 15.3203 17.6303 14.5264 17.0834L10.4914 14.3037C10.1498 14.0684 9.69836 14.0684 9.35676 14.3037L5.32177 17.0834C4.52784 17.6303 3.49593 16.8477 3.80846 15.9357L5.29139 11.6082C5.43675 11.184 5.28196 10.7149 4.9127 10.4605L1.08616 7.82443C0.277846 7.26758 0.671916 6.00093 1.65347 6.00093H6.49845C6.92579 6.00093 7.30591 5.72937 7.44444 5.3251L8.97807 0.849631Z" fill="#EFEEEE"/>
</svg>
